<svg
  width="320"
  height="320"
  viewBox="0 0 320 320"
  fill="none"
  xmlns="http://www.w3.org/2000/svg"
  role="img"
  aria-labelledby="title desc"
>
  <title id="title">Telurku Mark</title>
  <desc id="desc">Ikon Telurku dengan ayam, kandang, dan lahan hijau.</desc>
  <defs>
    <linearGradient
      id="eggGradient"
      x1="160"
      y1="24"
      x2="160"
      y2="274"
      gradientUnits="userSpaceOnUse"
    >
      <stop stop-color="#FFB000" />
      <stop offset="1" stop-color="#E78200" />
    </linearGradient>
    <linearGradient
      id="fieldGradient"
      x1="72"
      y1="222"
      x2="238"
      y2="302"
      gradientUnits="userSpaceOnUse"
    >
      <stop stop-color="#78C943" />
      <stop offset="1" stop-color="#2E8F24" />
    </linearGradient>
  </defs>

  <path
    d="M69 222C53 140 92 43 160 27c69 16 108 113 91 195"
    stroke="url(#eggGradient)"
    stroke-width="16"
    stroke-linecap="round"
  />
  <path
    d="M111 128c17-30 50-46 88-33 31 11 53 39 58 79"
    stroke="#FFAA00"
    stroke-width="12"
    stroke-linecap="round"
  />
  <path
    d="M151 107c-11-22 4-37 22-37 8-18 32-15 39 2 17-8 34 9 28 27-14 5-30 10-46 15-17 5-31 9-43-7Z"
    fill="#F4352B"
  />
  <path d="M212 113c0-13 15-21 26-14l19 11-27 24c-9 8-18-2-18-21Z" fill="#FFA400" />
  <path d="M148 121c0-20 16-36 36-36h10c25 0 45 20 45 45v97h-91V121Z" fill="white" />
  <circle cx="214" cy="113" r="9" fill="#13253B" />

  <path
    d="M106 218 166 168l60 50"
    stroke="#12253B"
    stroke-width="17"
    stroke-linecap="round"
    stroke-linejoin="round"
  />
  <path d="M122 218v45h89v-45" fill="#12253B" />
  <rect x="149" y="232" width="18" height="18" rx="3" fill="white" />
  <rect x="176" y="232" width="18" height="18" rx="3" fill="white" />
  <rect x="149" y="257" width="18" height="18" rx="3" fill="white" />
  <rect x="176" y="257" width="18" height="18" rx="3" fill="white" />

  <path
    d="M51 237c75-2 145 4 221-13-19 29-51 55-98 72-58-7-99-26-123-59Z"
    fill="url(#fieldGradient)"
  />
  <path d="M61 275c57 0 115 11 171 52" stroke="white" stroke-width="10" stroke-linecap="round" />
  <path d="M116 325c29-39 80-70 145-86" stroke="white" stroke-width="10" stroke-linecap="round" />
</svg>
